<svg width="20" height="20" viewBox="0 0 24 24" xmlns="http://www.w3.org/2000/svg">
<path fill-rule="evenodd" clip-rule="evenodd" d="M17.9 7.2C17.9 7.8 17.4 8.3 16.8 8.3C16.2 8.3 15.7 7.8 15.7 7.2C15.7 6.6 16.2 6.1 16.8 6.1C17.4 6.1 17.9 6.6 17.9 7.2ZM12 15C13.7 15 15 13.7 15 12C15 10.3 13.7 9 12 9C10.3 9 9 10.3 9 12C9 13.7 10.3 15 12 15ZM12 7.4C14.6 7.4 16.6 9.5 16.6 12C16.6 14.6 14.5 16.6 12 16.6C9.4 16.6 7.4 14.5 7.4 12C7.4 9.4 9.4 7.4 12 7.4ZM12 4.6C9.6 4.6 9.3 4.6 8.4 4.7C7.5 4.7 7 4.9 6.7 5C6.3 5.1 6 5.3 5.7 5.7C5.3 6 5.1 6.3 5 6.7C4.9 7 4.7 7.5 4.7 8.4C4.7 9.3 4.6 9.6 4.6 12C4.6 14.4 4.6 14.7 4.7 15.6C4.7 16.5 4.9 17 5 17.3C5.2 17.7 5.4 18 5.7 18.3C6 18.6 6.3 18.8 6.7 19C7 19.1 7.5 19.3 8.4 19.3C9.3 19.3 9.6 19.4 12 19.4C14.4 19.4 14.7 19.4 15.6 19.3C16.5 19.3 17 19.1 17.3 19C17.7 18.8 18 18.6 18.3 18.3C18.6 18 18.8 17.7 19 17.3C19.1 17 19.3 16.5 19.3 15.6C19.3 14.7 19.4 14.4 19.4 12C19.4 9.6 19.4 9.3 19.3 8.4C19.3 7.5 19.1 7 19 6.7C18.8 6.3 18.6 6 18.3 5.7C18 5.4 17.7 5.2 17.3 5C17 4.9 16.5 4.7 15.6 4.7C14.7 4.6 14.4 4.6 12 4.6ZM12 3C14.4 3 14.8 3 15.7 3.1C16.7 3.1 17.3 3.3 17.9 3.5C18.5 3.7 19 4 19.5 4.5C20 5 20.3 5.5 20.5 6.1C20.7 6.7 20.9 7.3 20.9 8.3C20.9 9.3 21 9.6 21 12C21 14.4 21 14.8 20.9 15.7C20.9 16.7 20.7 17.3 20.5 17.9C20.3 18.5 20 19 19.5 19.5C19 20 18.5 20.3 17.9 20.5C17.3 20.7 16.7 20.9 15.7 20.9C14.7 20.9 14.4 21 12 21C9.6 21 9.2 21 8.3 20.9C7.3 20.9 6.7 20.7 6.1 20.5C5.5 20.3 5 20 4.5 19.5C4 19 3.7 18.5 3.5 17.9C3.3 17.3 3.1 16.7 3.1 15.7C3 14.8 3 14.4 3 12C3 9.6 3 9.2 3.1 8.3C3.1 7.3 3.3 6.7 3.5 6.1C3.7 5.5 4 5 4.5 4.5C5 4 5.5 3.7 6.1 3.5C6.7 3.3 7.3 3.1 8.3 3.1C9.2 3 9.6 3 12 3Z" />
</svg>
