<svg width="20" height="20" viewBox="0 0 32 32" xmlns="http://www.w3.org/2000/svg">
    <path d="M9.25338 6.66666C9.25302 7.3739 8.97173 8.05204 8.47139 8.55189C7.97104 9.05173 7.29262 9.33235 6.58538 9.33199C5.87813 9.33164 5.2 9.05035 4.70015 8.55C4.2003 8.04965 3.91969 7.37124 3.92004 6.66399C3.9204 5.95675 4.20169 5.27861 4.70204 4.77876C5.20238 4.27892 5.8808 3.9983 6.58804 3.99866C7.29529 3.99901 7.97342 4.2803 8.47327 4.78065C8.97312 5.281 9.25373 5.95941 9.25338 6.66666ZM9.33338 11.3067H4.00004V28H9.33338V11.3067ZM17.76 11.3067H12.4534V28H17.7067V19.24C17.7067 14.36 24.0667 13.9067 24.0667 19.24V28H29.3334V17.4267C29.3334 9.19999 19.92 9.50666 17.7067 13.5467L17.76 11.3067Z"></path>
</svg>
